# xmcd
#
# Track frame offsets: 
#        150
#        19786
#        39957
#        61041
#        81926
#        108972
#        128872
#        150642
#
# Disc length: 2426 seconds
#
# Revision: 0
# Processed by: cddbd v1.5.2PL0 Copyright (c) Steve Scherf et al.
# Submitted via: ExactAudioCopy v0.99pb5
#
DISCID=56097808
DTITLE=Furious Barking - Theory of Diversity
DYEAR=2008
DGENRE=Thrash Metal
TTITLE0=Decompression State
TTITLE1=Always From Inside
TTITLE2=The Last Stop is Mortuary
TTITLE3=Lives in Incubator
TTITLE4=Every Indetermination is Complete
TTITLE5=Homo Superior
TTITLE6=Which Theory
TTITLE7=Way of Brutality
EXTD=
EXTT0=
EXTT1=
EXTT2=
EXTT3=
EXTT4=
EXTT5=
EXTT6=
EXTT7=
PLAYORDER=
